<?xml version="1.0" standalone="no"?>
<!DOCTYPE svg PUBLIC "-//W3C//DTD SVG 20010904//EN"
 "http://www.w3.org/TR/2001/REC-SVG-20010904/DTD/svg10.dtd">
<svg version="1.0" xmlns="http://www.w3.org/2000/svg"
 width="500.000000pt" height="500.000000pt" viewBox="0 0 500.000000 500.000000"
 preserveAspectRatio="xMidYMid meet">

<g transform="translate(0.000000,500.000000) scale(0.100000,-0.100000)"
fill="#000000" stroke="none">
<path d="M1230 3830 c0 -400 3 -610 10 -610 7 0 10 210 10 610 0 400 -3 610
-10 610 -7 0 -10 -210 -10 -610z"/>
<path d="M1155 3645 c0 -231 1 -324 2 -207 2 117 2 306 0 420 -1 114 -2 18 -2
-213z"/>
<path d="M1069 3805 c-1 -52 -2 -115 -2 -140 0 -297 4 -445 13 -445 6 0 10
120 10 340 0 220 -4 340 -10 340 -6 0 -11 -39 -11 -95z"/>
<path d="M3758 3241 c-67 -22 -135 -60 -163 -92 -22 -24 -8 -19 40 17 92 67
205 94 313 75 173 -31 297 -166 327 -356 9 -54 13 -68 14 -42 0 21 -6 69 -15
108 -51 223 -295 360 -516 290z"/>
<path d="M813 3223 c37 -2 96 -2 130 0 34 2 4 3 -68 3 -71 0 -99 -1 -62 -3z"/>
<path d="M2030 3220 c496 -5 560 -7 599 -23 52 -20 103 -56 149 -106 22 -24
30 -28 23 -14 -21 41 -92 101 -149 124 l-57 24 -560 1 -560 0 555 -6z"/>
<path d="M3095 3210 c249 -5 263 -8 329 -69 l29 -26 -18 28 c-10 16 -40 39
-66 53 -47 24 -53 24 -276 22 l-228 -2 230 -6z"/>
<path d="M3739 3197 c-102 -43 -173 -110 -217 -206 -23 -48 -26 -70 -27 -151
0 -87 3 -101 32 -161 98 -199 339 -276 528 -169 153 87 233 289 177 448 -22
62 -30 73 -24 33 3 -24 0 -29 -22 -33 -14 -3 -26 -1 -26 4 0 5 -4 7 -9 3 -5
-3 -13 0 -17 7 -5 8 -9 6 -14 -8 -8 -21 -1 -56 9 -50 8 6 -4 -154 -14 -179
-16 -38 -66 -92 -108 -116 -36 -20 -55 -24 -132 -24 -100 0 -129 11 -185 67
-121 121 -98 319 45 404 59 34 145 43 211 20 58 -20 67 -20 34 -1 -23 13 -23
14 -5 16 11 1 24 1 28 0 5 -1 6 3 2 8 -3 6 -13 7 -22 4 -11 -4 -14 -3 -9 5 4
7 14 12 22 12 8 0 13 3 13 8 -4 21 2 32 14 26 6 -4 0 6 -15 22 -26 26 -33 28
-120 31 -80 3 -101 0 -149 -20z"/>
<path d="M1421 3181 c13 -11 28 -17 33 -14 5 3 -2 12 -15 19 -35 20 -45 17
-18 -5z"/>
<path d="M857 3153 c-4 -21 -7 -87 -7 -147 0 -60 -2 -107 -4 -105 -6 6 -26
133 -28 175 -1 21 -6 34 -15 34 -10 0 -13 -54 -13 -285 0 -157 4 -285 8 -285
5 0 14 57 21 127 17 190 31 179 31 -25 l0 -172 65 0 65 0 1 118 c1 64 2 196 3
292 l1 175 162 3 c155 2 162 2 188 -20 34 -30 44 -92 20 -137 -25 -49 -65 -61
-205 -61 l-120 0 0 -59 0 -58 53 -7 c28 -3 79 -6 112 -6 33 0 55 -4 48 -8 -9
-6 -14 -221 -19 -873 -4 -476 -4 -877 0 -892 23 -91 26 22 26 861 0 488 4 893
8 899 5 7 33 20 63 29 68 20 141 90 158 149 33 119 -4 233 -93 286 -40 23 -47
24 -282 27 l-241 3 -6 -38z"/>
<path d="M1540 2830 l0 -360 255 0 255 0 0 65 0 65 -190 0 -190 0 0 85 0 85
175 0 175 0 0 65 0 65 -175 0 c-148 0 -175 2 -175 15 0 12 28 15 168 18 l167
3 -167 2 -168 2 0 60 0 60 190 0 190 0 0 65 0 65 -255 0 -255 0 0 -360z"/>
<path d="M2140 2830 l0 -362 218 4 c217 3 217 3 272 32 106 56 167 125 199
230 26 85 26 131 1 207 -36 105 -88 166 -190 220 -43 22 -56 24 -272 27 l-228
4 0 -362z m482 195 c28 -20 53 -49 71 -85 25 -48 28 -64 25 -125 -4 -89 -39
-147 -113 -187 -48 -26 -56 -28 -192 -28 l-143 0 0 231 0 230 154 -3 c153 -3
155 -3 198 -33z"/>
<path d="M2876 3164 c-3 -9 -6 -168 -6 -355 l0 -339 65 0 65 0 0 125 0 125 83
0 c45 0 87 -4 92 -8 6 -4 45 -60 88 -124 l78 -118 70 0 c53 0 68 3 63 13 -4 6
-39 59 -79 117 -39 58 -74 110 -78 117 -4 7 10 21 38 38 53 30 101 106 111
174 13 88 -39 192 -117 231 -34 18 -60 20 -253 20 -186 0 -215 -2 -220 -16z
m441 -137 c54 -53 27 -163 -43 -178 -16 -4 -84 -7 -151 -8 l-123 -1 0 104 c0
74 4 106 13 110 6 3 72 4 144 3 130 -2 133 -2 160 -30z"/>
<path d="M4010 3067 c0 -3 17 -17 37 -33 20 -15 33 -23 29 -16 -8 13 -66 56
-66 49z"/>
<path d="M4080 2996 c0 -2 8 -10 18 -17 15 -13 16 -12 3 4 -13 16 -21 21 -21
13z"/>
<path d="M4272 2770 c0 -14 2 -19 5 -12 2 6 2 18 0 25 -3 6 -5 1 -5 -13z"/>
<path d="M4246 2693 c-29 -73 -72 -130 -132 -176 -29 -23 -51 -43 -49 -46 7
-7 84 50 115 86 36 41 92 149 88 169 -2 8 -12 -7 -22 -33z"/>
<path d="M1156 2668 c-18 -115 -16 -1471 2 -1454 2 3 5 326 6 718 1 392 5 725
10 741 5 18 5 27 -2 27 -6 0 -13 -15 -16 -32z"/>
<path d="M1070 2468 c-2 -571 1 -1123 5 -1127 3 -2 7 -2 10 0 4 5 6 303 5
1002 0 184 -4 287 -10 287 -6 0 -10 -61 -10 -162z"/>
<path d="M2010 2331 c0 -6 102 -11 288 -13 322 -3 313 -2 400 -81 28 -26 41
-34 34 -20 -18 33 -80 80 -131 100 -38 14 -91 18 -318 21 -181 2 -273 0 -273
-7z"/>
<path d="M2745 2330 c4 -6 123 -10 326 -10 206 0 319 4 319 10 0 6 -115 10
-326 10 -214 0 -323 -3 -319 -10z"/>
<path d="M3725 2330 c3 -5 42 -10 85 -10 43 0 82 5 85 10 4 6 -27 10 -85 10
-58 0 -89 -4 -85 -10z"/>
<path d="M2110 1950 l0 -352 208 4 c199 3 209 4 262 29 68 33 129 93 166 167
26 52 29 66 29 162 0 95 -3 110 -27 156 -37 70 -107 138 -165 160 -39 14 -89
18 -260 22 l-213 4 0 -352z m445 197 c21 -12 53 -42 70 -65 28 -41 30 -50 30
-131 0 -80 -3 -91 -28 -129 -16 -22 -47 -53 -69 -69 -40 -27 -47 -28 -180 -31
l-138 -4 0 226 0 226 138 0 c123 0 141 -3 177 -23z"/>
<path d="M3328 2293 c-27 -2 -48 -9 -48 -15 0 -12 58 -166 160 -423 40 -99 80
-202 91 -229 18 -49 26 -63 32 -55 8 11 286 661 300 702 6 15 -1 17 -54 17
-52 0 -61 -3 -69 -22 -5 -13 -20 -52 -34 -88 -14 -36 -46 -114 -72 -175 -25
-60 -48 -118 -51 -127 -3 -10 -9 -18 -13 -18 -4 0 -10 8 -13 18 -3 9 -20 53
-37 97 -17 44 -49 129 -71 190 -39 106 -55 137 -68 133 -3 -1 -27 -3 -53 -5z"/>
<path d="M2810 1945 l0 -345 215 0 215 0 0 60 0 60 -155 0 -155 0 0 80 0 80
133 0 c181 0 177 -1 177 71 l0 59 -155 0 c-97 0 -155 4 -155 10 0 6 56 10 149
10 89 0 152 4 156 10 4 7 -48 10 -149 10 l-156 0 0 60 0 60 160 0 160 0 0 60
0 60 -220 0 -220 0 0 -345z"/>
<path d="M2030 1865 c0 -219 2 -396 5 -393 8 8 9 777 2 785 -4 3 -7 -173 -7
-392z"/>
<path d="M3850 2174 c-11 -26 -20 -48 -20 -51 0 -4 -136 -327 -165 -391 -17
-37 -19 -50 -6 -36 18 18 226 524 216 524 -2 0 -13 -21 -25 -46z"/>
</g>
</svg>
